<svg width="168" height="168" viewBox="0 0 168 168" fill="none" xmlns="http://www.w3.org/2000/svg" role="img" aria-labelledby="title desc">
  <title id="title">AI-Humanizer logo</title>
  <desc id="desc">A rounded app icon with a humanized text spark mark.</desc>
  <rect width="168" height="168" rx="38" fill="#111827"/>
  <path d="M36 116C52 92 70 80 90 80C109 80 123 91 132 116" stroke="#34D399" stroke-width="12" stroke-linecap="round"/>
  <path d="M43 56H96" stroke="#F9FAFB" stroke-width="12" stroke-linecap="round"/>
  <path d="M43 82H78" stroke="#F9FAFB" stroke-width="12" stroke-linecap="round"/>
  <path d="M111 43L116 57L130 62L116 67L111 81L106 67L92 62L106 57L111 43Z" fill="#FBBF24"/>
  <path d="M128 76L131 84L139 87L131 90L128 98L125 90L117 87L125 84L128 76Z" fill="#60A5FA"/>
</svg>
